<?xml version="1.0" standalone="no"?>
<!DOCTYPE svg PUBLIC "-//W3C//DTD SVG 20010904//EN"
 "http://www.w3.org/TR/2001/REC-SVG-20010904/DTD/svg10.dtd">
<svg version="1.0" xmlns="http://www.w3.org/2000/svg"
 width="500.000000pt" height="500.000000pt" viewBox="0 0 500.000000 500.000000"
 preserveAspectRatio="xMidYMid meet">

<g transform="translate(0.000000,500.000000) scale(0.100000,-0.100000)"
fill="#000000" stroke="none">
<path d="M2443 4516 c-46 -21 -67 -58 -60 -107 7 -53 40 -89 83 -89 99 0 150
101 87 169 -34 37 -68 45 -110 27z"/>
<path d="M1890 4433 c-40 -27 -49 -45 -50 -91 0 -35 6 -49 29 -73 62 -62 158
-20 168 73 5 42 3 50 -25 78 -35 35 -83 40 -122 13z"/>
<path d="M2980 4437 c-14 -7 -33 -29 -43 -50 -53 -106 86 -196 166 -107 76 85
-20 208 -123 157z"/>
<path d="M2378 4150 c-77 -160 -105 -198 -134 -182 -20 11 -115 108 -200 204
-48 56 -51 57 -77 45 -32 -14 -30 -7 -58 -197 -11 -80 -23 -147 -25 -149 -7
-8 -76 29 -199 107 -166 105 -166 105 -186 86 -16 -15 -15 -22 18 -112 19 -54
44 -127 54 -164 25 -90 49 -148 61 -148 5 0 28 13 51 28 71 49 206 99 362 137
143 35 160 37 376 42 151 4 255 2 310 -6 201 -29 399 -91 542 -172 46 -26 69
-35 72 -26 14 36 114 339 126 380 13 47 14 47 57 47 54 0 77 12 97 50 33 65 3
144 -60 156 -52 10 -103 -3 -121 -31 -15 -23 -16 -44 -2 -144 2 -13 -3 -27
-12 -31 -8 -5 -81 -49 -162 -99 -80 -50 -157 -93 -171 -96 -23 -6 -24 -4 -40
107 -9 62 -19 140 -22 174 -4 35 -11 61 -18 62 -7 0 -21 3 -33 7 -17 5 -32 -6
-79 -62 -93 -107 -158 -173 -187 -189 -27 -14 -28 -13 -66 43 -21 32 -63 105
-92 163 -50 100 -54 105 -85 106 -31 0 -33 -2 -97 -136z"/>
<path d="M1400 4268 c-39 -21 -63 -79 -51 -124 16 -57 37 -74 92 -74 40 0 51
4 72 29 33 40 42 92 22 130 -8 16 -19 32 -23 35 -22 13 -89 16 -112 4z"/>
<path d="M2350 3749 c-282 -16 -599 -112 -683 -207 -16 -18 -17 -25 -6 -60
l12 -40 45 35 c62 47 103 66 207 97 194 56 260 66 480 73 296 8 462 -14 664
-92 109 -41 159 -66 198 -99 l30 -25 11 47 c10 43 9 49 -11 70 -53 57 -254
134 -464 177 -67 14 -294 37 -333 33 -8 0 -76 -5 -150 -9z"/>
<path d="M2260 3549 c-156 -20 -443 -105 -500 -149 -21 -16 -23 -22 -15 -47
13 -35 88 -87 160 -109 l53 -17 54 35 c122 82 249 125 388 134 175 12 359 -31
528 -122 l82 -44 77 31 c76 32 143 80 143 103 0 37 -134 95 -335 145 -170 43
-465 62 -635 40z"/>
<path d="M2360 3254 c-171 -30 -305 -100 -402 -209 -172 -194 -229 -397 -182
-646 21 -113 58 -186 149 -296 80 -97 146 -147 268 -203 37 -18 67 -33 67 -35
0 -1 -7 -40 -16 -86 -25 -133 -70 -259 -124 -349 -48 -79 -57 -100 -44 -100
18 0 140 69 207 118 98 70 312 289 321 329 11 41 45 93 62 93 72 0 260 105
336 189 132 144 187 273 195 451 8 182 -39 327 -159 485 -131 172 -299 253
-543 260 -60 2 -121 2 -135 -1z m-150 -630 c39 -26 50 -45 50 -87 0 -53 -43
-97 -95 -97 -73 0 -128 88 -95 150 24 45 97 62 140 34z m304 6 c69 -26 89
-102 41 -158 -67 -80 -175 -33 -175 75 0 46 7 57 45 77 35 18 54 20 89 6z
m343 -16 c56 -36 50 -128 -10 -164 -18 -11 -41 -20 -52 -20 -38 0 -83 37 -95
77 -29 96 71 164 157 107z"/>
</g>
</svg>
